<svg width="50" height="50" viewBox="0 0 60 60" xmlns="http://www.w3.org/2000/svg">  
  <path fill="#a1a3f4" transform="translate(0, -10)" d="M45.869,20.41C43.814,20.41 42.148,22.076 42.148,24.131C42.148,26.186 43.814,27.852 45.869,27.852C47.924,27.852 49.59,26.186 49.59,24.131C49.59,22.076 47.924,20.41 45.869,20.41M30,50.657C24.114,50.657 19.342,45.887 19.342,40C19.342,34.114 24.114,29.342 30,29.342C35.887,29.342 40.658,34.114 40.658,40C40.658,45.887 35.887,50.657 30,50.657M30,23.886C21.1,23.886 13.886,31.1 13.886,40C13.886,48.899 21.1,56.113 30,56.113C38.9,56.113 46.115,48.899 46.115,40C46.115,31.1 38.9,23.886 30,23.886M54.378,52.101C54.244,55.022 53.756,56.606 53.346,57.663C52.803,59.06 52.154,60.057 51.106,61.106C50.058,62.155 49.06,62.803 47.662,63.347C46.607,63.757 45.021,64.244 42.102,64.378C38.944,64.521 37.997,64.552 30,64.552C22.003,64.552 21.056,64.521 17.898,64.378C14.979,64.244 13.393,63.757 12.338,63.347C10.94,62.803 9.942,62.155 8.894,61.106C7.846,60.057 7.197,59.06 6.654,57.663C6.244,56.606 5.755,55.022 5.623,52.101C5.479,48.943 5.448,47.996 5.448,40C5.448,32.003 5.479,31.056 5.623,27.899C5.755,24.978 6.244,23.391 6.654,22.338C7.197,20.938 7.846,19.942 8.894,18.894C9.942,17.846 10.94,17.196 12.338,16.654C13.393,16.244 14.979,15.756 17.898,15.623C21.057,15.479 22.004,15.448 30,15.448C37.997,15.448 38.943,15.479 42.102,15.623C45.021,15.756 46.607,16.244 47.662,16.654C49.06,17.196 50.058,17.846 51.106,18.894C52.154,19.942 52.803,20.938 53.346,22.338C53.756,23.391 54.244,24.978 54.378,27.899C54.522,31.056 54.552,32.003 54.552,40C54.552,47.996 54.522,48.943 54.378,52.101M59.82,27.631C59.674,24.438 59.167,22.258 58.425,20.349C57.659,18.377 56.633,16.702 54.965,15.035C53.297,13.368 51.623,12.342 49.652,11.575C47.743,10.834 45.562,10.326 42.369,10.18C39.169,10.033 38.148,10 30,10C21.853,10 20.831,10.033 17.631,10.18C14.438,10.326 12.257,10.834 10.349,11.575C8.376,12.342 6.703,13.368 5.035,15.035C3.368,16.702 2.342,18.377 1.574,20.349C0.834,22.258 0.326,24.438 0.181,27.631C0.035,30.831 0,31.851 0,40C0,48.147 0.035,49.17 0.181,52.369C0.326,55.562 0.834,57.743 1.574,59.651C2.342,61.625 3.368,63.296 5.035,64.965C6.703,66.634 8.376,67.658 10.349,68.425C12.257,69.167 14.438,69.673 17.631,69.82C20.831,69.965 21.853,70.001 30,70.001C38.148,70.001 39.169,69.965 42.369,69.82C45.562,69.673 47.743,69.167 49.652,68.425C51.623,67.658 53.297,66.634 54.965,64.965C56.633,63.296 57.659,61.625 58.425,59.651C59.167,57.743 59.674,55.562 59.82,52.369C59.966,49.17 60,48.147 60,40C60,31.851 59.966,30.831 59.82,27.631"/>
</svg>